<!-- Generator: Adobe Illustrator 23.0.0, SVG Export Plug-In  -->
<svg version="1.1" xmlns="http://www.w3.org/2000/svg" xmlns:xlink="http://www.w3.org/1999/xlink" x="0px" y="0px" width="140px"
	 height="100px" viewBox="0 0 140 100" style="enable-background:new 0 0 140 100;" xml:space="preserve">
<style type="text/css">
	.st0{fill:#FFFFFF;}
	.st1{fill:none;}
</style>
<defs>
</defs>
<g>
	<g>
		<g>
			<path d="M82.198,43.331c0.369,0,0.723,0.089,1.062,0.267c0.339,0.178,0.606,0.434,0.8,0.767c0.194,0.333,0.291,0.681,0.291,1.045
				c0,0.362-0.095,0.707-0.285,1.036c-0.19,0.328-0.455,0.585-0.795,0.768c-0.34,0.184-0.698,0.276-1.072,0.276
				c-0.375,0-0.732-0.092-1.072-0.276c-0.34-0.184-0.605-0.44-0.795-0.768c-0.19-0.328-0.285-0.674-0.285-1.036
				c0-0.364,0.097-0.712,0.291-1.045s0.46-0.589,0.8-0.767S81.829,43.331,82.198,43.331z M82.201,43.739
				c-0.296,0-0.58,0.072-0.852,0.214c-0.272,0.143-0.486,0.348-0.642,0.616c-0.156,0.268-0.235,0.548-0.235,0.841
				c0,0.291,0.076,0.569,0.229,0.833c0.153,0.264,0.366,0.471,0.639,0.619c0.274,0.148,0.56,0.223,0.86,0.223
				c0.302,0,0.589-0.074,0.861-0.223c0.273-0.148,0.486-0.355,0.639-0.619c0.154-0.264,0.23-0.542,0.23-0.833
				c0-0.293-0.078-0.574-0.235-0.841c-0.156-0.268-0.371-0.473-0.644-0.616C82.782,43.81,82.497,43.739,82.201,43.739z
				 M81.226,46.524v-2.207h0.464c0.435,0,0.678,0.002,0.731,0.005c0.154,0.013,0.273,0.042,0.358,0.088
				c0.085,0.046,0.156,0.117,0.214,0.212c0.057,0.095,0.086,0.201,0.086,0.316c0,0.159-0.054,0.295-0.162,0.409
				c-0.108,0.113-0.259,0.183-0.454,0.21c0.069,0.025,0.123,0.053,0.16,0.083c0.037,0.03,0.089,0.086,0.155,0.17
				c0.017,0.022,0.073,0.111,0.169,0.269l0.27,0.445h-0.573l-0.191-0.358c-0.129-0.241-0.236-0.392-0.32-0.455
				c-0.084-0.062-0.191-0.094-0.32-0.094H81.69v0.907H81.226z M81.69,45.27h0.188c0.268,0,0.434-0.01,0.499-0.03
				c0.065-0.02,0.116-0.055,0.153-0.104s0.056-0.106,0.056-0.17c0-0.062-0.018-0.116-0.055-0.164
				c-0.036-0.048-0.089-0.082-0.156-0.103s-0.233-0.031-0.497-0.031H81.69V45.27z"/>
			<g>
				<g>
					<path d="M40.516,53.506l1.237-0.31c0.074,0.496,0.226,0.848,0.453,1.055c0.228,0.207,0.535,0.285,0.921,0.234
						c0.409-0.054,0.718-0.2,0.926-0.439c0.208-0.239,0.311-0.499,0.311-0.782c0-0.181-0.044-0.33-0.131-0.446
						c-0.087-0.116-0.24-0.207-0.458-0.272c-0.149-0.043-0.488-0.11-1.018-0.2c-0.682-0.116-1.16-0.305-1.435-0.569
						c-0.387-0.371-0.58-0.86-0.58-1.468c0-0.391,0.091-0.768,0.273-1.133c0.182-0.364,0.444-0.658,0.786-0.881
						s0.755-0.367,1.239-0.431c0.79-0.104,1.385,0.028,1.785,0.398c0.4,0.369,0.609,0.905,0.629,1.607l-1.271,0.236
						c-0.054-0.387-0.171-0.655-0.35-0.804c-0.179-0.149-0.448-0.2-0.805-0.153c-0.369,0.049-0.659,0.18-0.868,0.392
						c-0.135,0.137-0.202,0.304-0.202,0.503c0,0.181,0.063,0.329,0.189,0.441c0.16,0.143,0.55,0.262,1.168,0.359
						c0.619,0.096,1.076,0.22,1.372,0.371c0.296,0.151,0.528,0.38,0.696,0.688c0.168,0.307,0.251,0.704,0.251,1.189
						c0,0.44-0.1,0.865-0.301,1.275c-0.2,0.411-0.484,0.733-0.85,0.968c-0.367,0.235-0.823,0.389-1.37,0.461
						c-0.796,0.105-1.408-0.038-1.834-0.43C40.854,54.973,40.599,54.354,40.516,53.506z"/>
					<path d="M47.071,55.136l-1.503-7.475l1.302-0.172l0.949,5.146l1.151-5.423l1.512-0.2l1.104,5.214l0.967-5.488l1.28-0.169
						l-1.529,7.876l-1.349,0.178L49.7,49.052l-1.25,5.902L47.071,55.136z"/>
					<path d="M59.146,53.541l-1.383,0.183l-0.55-1.67l-2.517,0.333l-0.52,1.812l-1.349,0.178l2.453-7.998l1.345-0.178L59.146,53.541
						z M56.805,50.814l-0.868-2.733l-0.85,2.96L56.805,50.814z"/>
					<path d="M59.293,53.521v-7.674l2.04-0.27c0.773-0.102,1.277-0.13,1.512-0.085c0.361,0.068,0.663,0.278,0.906,0.631
						c0.243,0.353,0.365,0.836,0.365,1.446c0,0.471-0.07,0.876-0.21,1.216c-0.14,0.34-0.319,0.615-0.535,0.827
						c-0.216,0.212-0.436,0.362-0.659,0.451c-0.304,0.113-0.743,0.208-1.319,0.284l-0.829,0.11v2.895L59.293,53.521z M60.564,46.977
						v2.178l0.696-0.092c0.501-0.066,0.836-0.151,1.005-0.253c0.169-0.103,0.301-0.246,0.397-0.429
						c0.096-0.184,0.144-0.389,0.144-0.616c0-0.279-0.067-0.501-0.202-0.664c-0.135-0.164-0.305-0.254-0.511-0.273
						c-0.152-0.015-0.457,0.008-0.915,0.069L60.564,46.977z"/>
					<path d="M64.375,49.06c0-0.782,0.096-1.45,0.288-2.006c0.143-0.41,0.339-0.786,0.586-1.13c0.248-0.343,0.519-0.61,0.814-0.799
						c0.392-0.254,0.845-0.415,1.357-0.483c0.928-0.122,1.67,0.13,2.227,0.758c0.557,0.628,0.835,1.567,0.835,2.816
						c0,1.239-0.277,2.245-0.829,3.017c-0.553,0.773-1.292,1.22-2.217,1.343c-0.936,0.124-1.681-0.126-2.234-0.749
						C64.651,51.203,64.375,50.281,64.375,49.06z M65.685,48.834c0,0.869,0.165,1.506,0.494,1.911
						c0.329,0.405,0.747,0.574,1.254,0.507c0.507-0.067,0.923-0.344,1.248-0.832c0.325-0.488,0.488-1.177,0.488-2.067
						c0-0.879-0.158-1.514-0.475-1.905c-0.316-0.391-0.737-0.552-1.261-0.482c-0.524,0.069-0.946,0.344-1.267,0.825
						C65.845,47.27,65.685,47.951,65.685,48.834z"/>
					<path d="M40.716,62.623v-5.525l1.653-0.218c0.626-0.083,1.035-0.109,1.225-0.079c0.292,0.044,0.537,0.192,0.734,0.444
						c0.197,0.252,0.296,0.597,0.296,1.037c0,0.339-0.057,0.632-0.171,0.878c-0.114,0.246-0.258,0.447-0.433,0.602
						c-0.175,0.155-0.353,0.266-0.534,0.332c-0.246,0.085-0.602,0.159-1.068,0.22l-0.671,0.089v2.084L40.716,62.623z M41.746,57.896
						v1.568l0.564-0.075c0.406-0.054,0.677-0.119,0.814-0.194c0.137-0.076,0.244-0.18,0.322-0.314s0.117-0.282,0.117-0.445
						c0-0.201-0.055-0.36-0.164-0.476c-0.109-0.116-0.247-0.18-0.414-0.19c-0.123-0.009-0.37,0.011-0.741,0.06L41.746,57.896z"/>
					<path d="M49.112,61.513l-1.12,0.148l-0.445-1.196l-2.039,0.269l-0.421,1.311l-1.093,0.144l1.987-5.788l1.089-0.144
						L49.112,61.513z M47.216,59.578l-0.703-1.957l-0.689,2.141L47.216,59.578z"/>
					<path d="M49.234,61.497v-5.525l2.168-0.286c0.545-0.072,0.941-0.075,1.188-0.008c0.247,0.067,0.445,0.217,0.593,0.451
						c0.148,0.234,0.223,0.514,0.223,0.841c0,0.415-0.113,0.772-0.338,1.072c-0.225,0.3-0.561,0.514-1.009,0.644
						c0.223,0.111,0.406,0.241,0.551,0.391c0.145,0.149,0.34,0.422,0.586,0.82l0.623,0.996l-1.232,0.163l-0.745-1.104
						c-0.264-0.395-0.445-0.642-0.543-0.74c-0.097-0.099-0.201-0.162-0.31-0.189c-0.109-0.027-0.282-0.025-0.518,0.006l-0.209,0.027
						v2.307L49.234,61.497z M50.264,58.172l0.762-0.101c0.494-0.065,0.802-0.129,0.925-0.19c0.123-0.061,0.219-0.152,0.289-0.272
						c0.07-0.12,0.104-0.263,0.104-0.428c0-0.186-0.046-0.33-0.137-0.432c-0.092-0.102-0.221-0.157-0.388-0.165
						c-0.083-0.002-0.334,0.025-0.751,0.08l-0.804,0.106V58.172z"/>
					<path d="M55.098,60.722v-4.59l-1.514,0.2v-0.935l4.053-0.536v0.935l-1.51,0.2v4.59L55.098,60.722z"/>
					<path d="M59.214,60.178v-2.325L57.346,54.9l1.207-0.16l1.201,2.027l1.176-2.341l1.186-0.157l-1.875,3.455v2.318L59.214,60.178z
						"/>
					<path d="M63.751,59.578v-2.325L61.883,54.3l1.207-0.16l1.2,2.027l1.176-2.341l1.186-0.157l-1.875,3.455v2.318L63.751,59.578z"
						/>
					<path d="M66.528,56.483c0-0.563,0.078-1.045,0.233-1.448c0.116-0.297,0.274-0.57,0.475-0.82
						c0.201-0.25,0.421-0.445,0.659-0.585c0.318-0.188,0.684-0.309,1.099-0.364c0.752-0.099,1.353,0.074,1.804,0.519
						c0.451,0.445,0.677,1.118,0.677,2.017c0,0.892-0.224,1.619-0.672,2.182c-0.448,0.563-1.046,0.894-1.795,0.993
						c-0.758,0.1-1.362-0.071-1.809-0.513C66.752,58.023,66.528,57.362,66.528,56.483z M67.589,56.305c0,0.626,0.133,1.082,0.4,1.37
						c0.267,0.287,0.605,0.404,1.016,0.35c0.411-0.054,0.747-0.259,1.011-0.614c0.263-0.355,0.395-0.853,0.395-1.494
						c0-0.633-0.128-1.089-0.384-1.366c-0.256-0.278-0.597-0.388-1.021-0.332c-0.424,0.056-0.767,0.259-1.026,0.609
						C67.719,55.176,67.589,55.669,67.589,56.305z"/>
					<path d="M71.845,52.983l1.03-0.136v2.992c0,0.475,0.013,0.781,0.038,0.918c0.044,0.22,0.149,0.388,0.315,0.503
						c0.166,0.115,0.392,0.153,0.68,0.115c0.292-0.039,0.513-0.132,0.661-0.281s0.238-0.32,0.268-0.512
						c0.03-0.192,0.045-0.507,0.045-0.945v-3.057l1.03-0.136v2.902c0,0.663-0.028,1.136-0.083,1.417
						c-0.056,0.281-0.158,0.526-0.308,0.734c-0.15,0.208-0.349,0.385-0.6,0.53c-0.251,0.145-0.577,0.244-0.981,0.297
						c-0.487,0.064-0.857,0.052-1.108-0.036c-0.252-0.089-0.451-0.22-0.597-0.396c-0.146-0.175-0.243-0.367-0.289-0.574
						c-0.067-0.308-0.101-0.771-0.101-1.389V52.983z"/>
					<path d="M77.718,57.732v-4.59l-1.514,0.2v-0.935l4.053-0.536v0.935l-1.51,0.2v4.59L77.718,57.732z"/>
					<path d="M80.499,57.365V51.84l1.03-0.136v2.175l2.018-0.267v-2.175l1.03-0.136v5.525l-1.03,0.136v-2.416l-2.018,0.267v2.416
						L80.499,57.365z"/>
					<path d="M40.872,72.251V64.64l1.271-0.168v6.318l3.161-0.418v1.293L40.872,72.251z"/>
					<path d="M45.904,71.585v-7.674l4.669-0.617v1.298l-3.398,0.449v1.701l3.161-0.418v1.293l-3.161,0.418v2.089l3.518-0.465v1.293
						L45.904,71.585z"/>
					<path d="M57.142,70.1l-1.383,0.183l-0.55-1.67l-2.517,0.333l-0.52,1.812l-1.349,0.178l2.453-7.998l1.344-0.178L57.142,70.1z
						 M54.801,67.374l-0.868-2.733l-0.85,2.96L54.801,67.374z"/>
					<path d="M60.438,66.843V65.55l2.74-0.362v3.057c-0.266,0.349-0.652,0.677-1.158,0.983c-0.506,0.306-1.017,0.493-1.536,0.562
						c-0.659,0.087-1.233-0.005-1.722-0.277c-0.49-0.272-0.858-0.705-1.104-1.299c-0.246-0.594-0.369-1.259-0.369-1.995
						c0-0.799,0.137-1.527,0.412-2.185c0.275-0.657,0.677-1.187,1.207-1.589c0.404-0.308,0.907-0.502,1.508-0.581
						c0.782-0.103,1.392,0.016,1.832,0.357c0.439,0.341,0.722,0.856,0.848,1.545l-1.263,0.455c-0.089-0.365-0.256-0.641-0.501-0.826
						c-0.245-0.186-0.551-0.254-0.917-0.206c-0.556,0.073-0.997,0.346-1.325,0.819c-0.328,0.473-0.492,1.131-0.492,1.976
						c0,0.911,0.166,1.572,0.498,1.983c0.332,0.411,0.767,0.582,1.306,0.51c0.266-0.035,0.533-0.134,0.801-0.297
						c0.268-0.163,0.497-0.348,0.689-0.554v-0.974L60.438,66.843z"/>
					<path d="M64.034,61.515l1.272-0.168v4.156c0,0.66,0.016,1.085,0.047,1.276c0.054,0.307,0.184,0.542,0.389,0.705
						c0.205,0.163,0.484,0.221,0.84,0.174c0.361-0.048,0.633-0.174,0.816-0.378c0.183-0.204,0.294-0.439,0.331-0.706
						c0.037-0.267,0.056-0.704,0.056-1.311V61.02l1.271-0.168v4.031c0,0.921-0.034,1.577-0.103,1.966
						c-0.069,0.389-0.196,0.727-0.38,1.013c-0.185,0.286-0.432,0.527-0.741,0.723c-0.309,0.196-0.713,0.327-1.211,0.393
						c-0.601,0.08-1.057,0.055-1.368-0.073c-0.311-0.128-0.556-0.316-0.737-0.562c-0.18-0.246-0.299-0.514-0.356-0.803
						c-0.083-0.429-0.125-1.072-0.125-1.931V61.515z"/>
					<path d="M70.088,68.389v-7.674l4.669-0.617v1.298l-3.398,0.449v1.701l3.161-0.418v1.293l-3.161,0.418v2.089l3.518-0.465v1.293
						L70.088,68.389z"/>
				</g>
			</g>
		</g>
		<g>
			<path class="st0" d="M82.198,43.331c0.369,0,0.723,0.089,1.062,0.267c0.339,0.178,0.606,0.434,0.8,0.767
				c0.194,0.333,0.291,0.681,0.291,1.045c0,0.362-0.095,0.707-0.285,1.036c-0.19,0.328-0.455,0.585-0.795,0.768
				c-0.34,0.184-0.698,0.276-1.072,0.276c-0.375,0-0.732-0.092-1.072-0.276c-0.34-0.184-0.605-0.44-0.795-0.768
				c-0.19-0.328-0.285-0.674-0.285-1.036c0-0.364,0.097-0.712,0.291-1.045s0.46-0.589,0.8-0.767S81.829,43.331,82.198,43.331z
				 M82.201,43.739c-0.296,0-0.58,0.072-0.852,0.214c-0.272,0.143-0.486,0.348-0.642,0.616c-0.156,0.268-0.235,0.548-0.235,0.841
				c0,0.291,0.076,0.569,0.229,0.833c0.153,0.264,0.366,0.471,0.639,0.619c0.274,0.148,0.56,0.223,0.86,0.223
				c0.302,0,0.589-0.074,0.861-0.223c0.273-0.148,0.486-0.355,0.639-0.619c0.154-0.264,0.23-0.542,0.23-0.833
				c0-0.293-0.078-0.574-0.235-0.841c-0.156-0.268-0.371-0.473-0.644-0.616C82.782,43.81,82.497,43.739,82.201,43.739z
				 M81.226,46.524v-2.207h0.464c0.435,0,0.678,0.002,0.731,0.005c0.154,0.013,0.273,0.042,0.358,0.088
				c0.085,0.046,0.156,0.117,0.214,0.212c0.057,0.095,0.086,0.201,0.086,0.316c0,0.159-0.054,0.295-0.162,0.409
				c-0.108,0.113-0.259,0.183-0.454,0.21c0.069,0.025,0.123,0.053,0.16,0.083c0.037,0.03,0.089,0.086,0.155,0.17
				c0.017,0.022,0.073,0.111,0.169,0.269l0.27,0.445h-0.573l-0.191-0.358c-0.129-0.241-0.236-0.392-0.32-0.455
				c-0.084-0.062-0.191-0.094-0.32-0.094H81.69v0.907H81.226z M81.69,45.27h0.188c0.268,0,0.434-0.01,0.499-0.03
				c0.065-0.02,0.116-0.055,0.153-0.104s0.056-0.106,0.056-0.17c0-0.062-0.018-0.116-0.055-0.164
				c-0.036-0.048-0.089-0.082-0.156-0.103s-0.233-0.031-0.497-0.031H81.69V45.27z"/>
			<g>
				<g>
					<path class="st0" d="M40.516,53.506l1.237-0.31c0.074,0.496,0.226,0.848,0.453,1.055c0.228,0.207,0.535,0.285,0.921,0.234
						c0.409-0.054,0.718-0.2,0.926-0.439c0.208-0.239,0.311-0.499,0.311-0.782c0-0.181-0.044-0.33-0.131-0.446
						c-0.087-0.116-0.24-0.207-0.458-0.272c-0.149-0.043-0.488-0.11-1.018-0.2c-0.682-0.116-1.16-0.305-1.435-0.569
						c-0.387-0.371-0.58-0.86-0.58-1.468c0-0.391,0.091-0.768,0.273-1.133c0.182-0.364,0.444-0.658,0.786-0.881
						s0.755-0.367,1.239-0.431c0.79-0.104,1.385,0.028,1.785,0.398c0.4,0.369,0.609,0.905,0.629,1.607l-1.271,0.236
						c-0.054-0.387-0.171-0.655-0.35-0.804c-0.179-0.149-0.448-0.2-0.805-0.153c-0.369,0.049-0.659,0.18-0.868,0.392
						c-0.135,0.137-0.202,0.304-0.202,0.503c0,0.181,0.063,0.329,0.189,0.441c0.16,0.143,0.55,0.262,1.168,0.359
						c0.619,0.096,1.076,0.22,1.372,0.371c0.296,0.151,0.528,0.38,0.696,0.688c0.168,0.307,0.251,0.704,0.251,1.189
						c0,0.44-0.1,0.865-0.301,1.275c-0.2,0.411-0.484,0.733-0.85,0.968c-0.367,0.235-0.823,0.389-1.37,0.461
						c-0.796,0.105-1.408-0.038-1.834-0.43C40.854,54.973,40.599,54.354,40.516,53.506z"/>
					<path class="st0" d="M47.071,55.136l-1.503-7.475l1.302-0.172l0.949,5.146l1.151-5.423l1.512-0.2l1.104,5.214l0.967-5.488
						l1.28-0.169l-1.529,7.876l-1.349,0.178L49.7,49.052l-1.25,5.902L47.071,55.136z"/>
					<path class="st0" d="M59.146,53.541l-1.383,0.183l-0.55-1.67l-2.517,0.333l-0.52,1.812l-1.349,0.178l2.453-7.998l1.345-0.178
						L59.146,53.541z M56.805,50.814l-0.868-2.733l-0.85,2.96L56.805,50.814z"/>
					<path class="st0" d="M59.293,53.521v-7.674l2.04-0.27c0.773-0.102,1.277-0.13,1.512-0.085c0.361,0.068,0.663,0.278,0.906,0.631
						c0.243,0.353,0.365,0.836,0.365,1.446c0,0.471-0.07,0.876-0.21,1.216c-0.14,0.34-0.319,0.615-0.535,0.827
						c-0.216,0.212-0.436,0.362-0.659,0.451c-0.304,0.113-0.743,0.208-1.319,0.284l-0.829,0.11v2.895L59.293,53.521z M60.564,46.977
						v2.178l0.696-0.092c0.501-0.066,0.836-0.151,1.005-0.253c0.169-0.103,0.301-0.246,0.397-0.429
						c0.096-0.184,0.144-0.389,0.144-0.616c0-0.279-0.067-0.501-0.202-0.664c-0.135-0.164-0.305-0.254-0.511-0.273
						c-0.152-0.015-0.457,0.008-0.915,0.069L60.564,46.977z"/>
					<path class="st0" d="M64.375,49.06c0-0.782,0.096-1.45,0.288-2.006c0.143-0.41,0.339-0.786,0.586-1.13
						c0.248-0.343,0.519-0.61,0.814-0.799c0.392-0.254,0.845-0.415,1.357-0.483c0.928-0.122,1.67,0.13,2.227,0.758
						c0.557,0.628,0.835,1.567,0.835,2.816c0,1.239-0.277,2.245-0.829,3.017c-0.553,0.773-1.292,1.22-2.217,1.343
						c-0.936,0.124-1.681-0.126-2.234-0.749C64.651,51.203,64.375,50.281,64.375,49.06z M65.685,48.834
						c0,0.869,0.165,1.506,0.494,1.911c0.329,0.405,0.747,0.574,1.254,0.507c0.507-0.067,0.923-0.344,1.248-0.832
						c0.325-0.488,0.488-1.177,0.488-2.067c0-0.879-0.158-1.514-0.475-1.905c-0.316-0.391-0.737-0.552-1.261-0.482
						c-0.524,0.069-0.946,0.344-1.267,0.825C65.845,47.27,65.685,47.951,65.685,48.834z"/>
					<path class="st0" d="M40.716,62.623v-5.525l1.653-0.218c0.626-0.083,1.035-0.109,1.225-0.079
						c0.292,0.044,0.537,0.192,0.734,0.444c0.197,0.252,0.296,0.597,0.296,1.037c0,0.339-0.057,0.632-0.171,0.878
						c-0.114,0.246-0.258,0.447-0.433,0.602c-0.175,0.155-0.353,0.266-0.534,0.332c-0.246,0.085-0.602,0.159-1.068,0.22
						l-0.671,0.089v2.084L40.716,62.623z M41.746,57.896v1.568l0.564-0.075c0.406-0.054,0.677-0.119,0.814-0.194
						c0.137-0.076,0.244-0.18,0.322-0.314s0.117-0.282,0.117-0.445c0-0.201-0.055-0.36-0.164-0.476
						c-0.109-0.116-0.247-0.18-0.414-0.19c-0.123-0.009-0.37,0.011-0.741,0.06L41.746,57.896z"/>
					<path class="st0" d="M49.112,61.513l-1.12,0.148l-0.445-1.196l-2.039,0.269l-0.421,1.311l-1.093,0.144l1.987-5.788l1.089-0.144
						L49.112,61.513z M47.216,59.578l-0.703-1.957l-0.689,2.141L47.216,59.578z"/>
					<path class="st0" d="M49.234,61.497v-5.525l2.168-0.286c0.545-0.072,0.941-0.075,1.188-0.008
						c0.247,0.067,0.445,0.217,0.593,0.451c0.148,0.234,0.223,0.514,0.223,0.841c0,0.415-0.113,0.772-0.338,1.072
						c-0.225,0.3-0.561,0.514-1.009,0.644c0.223,0.111,0.406,0.241,0.551,0.391c0.145,0.149,0.34,0.422,0.586,0.82l0.623,0.996
						l-1.232,0.163l-0.745-1.104c-0.264-0.395-0.445-0.642-0.543-0.74c-0.097-0.099-0.201-0.162-0.31-0.189
						c-0.109-0.027-0.282-0.025-0.518,0.006l-0.209,0.027v2.307L49.234,61.497z M50.264,58.172l0.762-0.101
						c0.494-0.065,0.802-0.129,0.925-0.19c0.123-0.061,0.219-0.152,0.289-0.272c0.07-0.12,0.104-0.263,0.104-0.428
						c0-0.186-0.046-0.33-0.137-0.432c-0.092-0.102-0.221-0.157-0.388-0.165c-0.083-0.002-0.334,0.025-0.751,0.08l-0.804,0.106
						V58.172z"/>
					<path class="st0" d="M55.098,60.722v-4.59l-1.514,0.2v-0.935l4.053-0.536v0.935l-1.51,0.2v4.59L55.098,60.722z"/>
					<path class="st0" d="M59.214,60.178v-2.325L57.346,54.9l1.207-0.16l1.201,2.027l1.176-2.341l1.186-0.157l-1.875,3.455v2.318
						L59.214,60.178z"/>
					<path class="st0" d="M63.751,59.578v-2.325L61.883,54.3l1.207-0.16l1.2,2.027l1.176-2.341l1.186-0.157l-1.875,3.455v2.318
						L63.751,59.578z"/>
					<path class="st0" d="M66.528,56.483c0-0.563,0.078-1.045,0.233-1.448c0.116-0.297,0.274-0.57,0.475-0.82
						c0.201-0.25,0.421-0.445,0.659-0.585c0.318-0.188,0.684-0.309,1.099-0.364c0.752-0.099,1.353,0.074,1.804,0.519
						c0.451,0.445,0.677,1.118,0.677,2.017c0,0.892-0.224,1.619-0.672,2.182c-0.448,0.563-1.046,0.894-1.795,0.993
						c-0.758,0.1-1.362-0.071-1.809-0.513C66.752,58.023,66.528,57.362,66.528,56.483z M67.589,56.305c0,0.626,0.133,1.082,0.4,1.37
						c0.267,0.287,0.605,0.404,1.016,0.35c0.411-0.054,0.747-0.259,1.011-0.614c0.263-0.355,0.395-0.853,0.395-1.494
						c0-0.633-0.128-1.089-0.384-1.366c-0.256-0.278-0.597-0.388-1.021-0.332c-0.424,0.056-0.767,0.259-1.026,0.609
						C67.719,55.176,67.589,55.669,67.589,56.305z"/>
					<path class="st0" d="M71.845,52.983l1.03-0.136v2.992c0,0.475,0.013,0.781,0.038,0.918c0.044,0.22,0.149,0.388,0.315,0.503
						c0.166,0.115,0.392,0.153,0.68,0.115c0.292-0.039,0.513-0.132,0.661-0.281s0.238-0.32,0.268-0.512
						c0.03-0.192,0.045-0.507,0.045-0.945v-3.057l1.03-0.136v2.902c0,0.663-0.028,1.136-0.083,1.417
						c-0.056,0.281-0.158,0.526-0.308,0.734c-0.15,0.208-0.349,0.385-0.6,0.53c-0.251,0.145-0.577,0.244-0.981,0.297
						c-0.487,0.064-0.857,0.052-1.108-0.036c-0.252-0.089-0.451-0.22-0.597-0.396c-0.146-0.175-0.243-0.367-0.289-0.574
						c-0.067-0.308-0.101-0.771-0.101-1.389V52.983z"/>
					<path class="st0" d="M77.718,57.732v-4.59l-1.514,0.2v-0.935l4.053-0.536v0.935l-1.51,0.2v4.59L77.718,57.732z"/>
					<path class="st0" d="M80.499,57.365V51.84l1.03-0.136v2.175l2.018-0.267v-2.175l1.03-0.136v5.525l-1.03,0.136v-2.416
						l-2.018,0.267v2.416L80.499,57.365z"/>
					<path class="st0" d="M40.872,72.251V64.64l1.271-0.168v6.318l3.161-0.418v1.293L40.872,72.251z"/>
					<path class="st0" d="M45.904,71.585v-7.674l4.669-0.617v1.298l-3.398,0.449v1.701l3.161-0.418v1.293l-3.161,0.418v2.089
						l3.518-0.465v1.293L45.904,71.585z"/>
					<path class="st0" d="M57.142,70.1l-1.383,0.183l-0.55-1.67l-2.517,0.333l-0.52,1.812l-1.349,0.178l2.453-7.998l1.344-0.178
						L57.142,70.1z M54.801,67.374l-0.868-2.733l-0.85,2.96L54.801,67.374z"/>
					<path class="st0" d="M60.438,66.843V65.55l2.74-0.362v3.057c-0.266,0.349-0.652,0.677-1.158,0.983
						c-0.506,0.306-1.017,0.493-1.536,0.562c-0.659,0.087-1.233-0.005-1.722-0.277c-0.49-0.272-0.858-0.705-1.104-1.299
						c-0.246-0.594-0.369-1.259-0.369-1.995c0-0.799,0.137-1.527,0.412-2.185c0.275-0.657,0.677-1.187,1.207-1.589
						c0.404-0.308,0.907-0.502,1.508-0.581c0.782-0.103,1.392,0.016,1.832,0.357c0.439,0.341,0.722,0.856,0.848,1.545l-1.263,0.455
						c-0.089-0.365-0.256-0.641-0.501-0.826c-0.245-0.186-0.551-0.254-0.917-0.206c-0.556,0.073-0.997,0.346-1.325,0.819
						c-0.328,0.473-0.492,1.131-0.492,1.976c0,0.911,0.166,1.572,0.498,1.983c0.332,0.411,0.767,0.582,1.306,0.51
						c0.266-0.035,0.533-0.134,0.801-0.297c0.268-0.163,0.497-0.348,0.689-0.554v-0.974L60.438,66.843z"/>
					<path class="st0" d="M64.034,61.515l1.272-0.168v4.156c0,0.66,0.016,1.085,0.047,1.276c0.054,0.307,0.184,0.542,0.389,0.705
						c0.205,0.163,0.484,0.221,0.84,0.174c0.361-0.048,0.633-0.174,0.816-0.378c0.183-0.204,0.294-0.439,0.331-0.706
						c0.037-0.267,0.056-0.704,0.056-1.311V61.02l1.271-0.168v4.031c0,0.921-0.034,1.577-0.103,1.966
						c-0.069,0.389-0.196,0.727-0.38,1.013c-0.185,0.286-0.432,0.527-0.741,0.723c-0.309,0.196-0.713,0.327-1.211,0.393
						c-0.601,0.08-1.057,0.055-1.368-0.073c-0.311-0.128-0.556-0.316-0.737-0.562c-0.18-0.246-0.299-0.514-0.356-0.803
						c-0.083-0.429-0.125-1.072-0.125-1.931V61.515z"/>
					<path class="st0" d="M70.088,68.389v-7.674l4.669-0.617v1.298l-3.398,0.449v1.701l3.161-0.418v1.293l-3.161,0.418v2.089
						l3.518-0.465v1.293L70.088,68.389z"/>
				</g>
			</g>
		</g>
	</g>
	<rect class="st1" width="140" height="100"/>
</g>
</svg>