<!-- Generator: Adobe Illustrator 23.0.0, SVG Export Plug-In  -->
<svg version="1.1" xmlns="http://www.w3.org/2000/svg" xmlns:xlink="http://www.w3.org/1999/xlink" x="0px" y="0px" width="140px"
	 height="100px" viewBox="0 0 140 100" style="enable-background:new 0 0 140 100;" xml:space="preserve">
<style type="text/css">
	.st0{fill:#FFFFFF;}
	.st1{fill:none;}
</style>
<defs>
</defs>
<g>
	<g>
		<g>
			<g>
				<path class="st0" d="M134.587,0c0.84,0,1.646,0.203,2.418,0.609c0.772,0.406,1.378,0.988,1.82,1.745s0.662,1.551,0.662,2.379
					c0,0.824-0.217,1.61-0.649,2.357c-0.433,0.747-1.036,1.33-1.81,1.749c-0.774,0.418-1.588,0.627-2.44,0.627
					c-0.853,0-1.666-0.209-2.44-0.627c-0.774-0.418-1.377-1.001-1.81-1.749c-0.433-0.748-0.649-1.533-0.649-2.357
					c0-0.828,0.221-1.621,0.662-2.379s1.048-1.34,1.82-1.745C132.941,0.203,133.747,0,134.587,0z M134.594,0.927
					c-0.674,0-1.32,0.163-1.938,0.488c-0.618,0.325-1.106,0.793-1.462,1.403c-0.356,0.61-0.534,1.248-0.534,1.915
					c0,0.663,0.174,1.295,0.521,1.897c0.347,0.602,0.833,1.071,1.455,1.409c0.623,0.338,1.275,0.507,1.957,0.507
					c0.687,0,1.34-0.169,1.961-0.507c0.62-0.338,1.106-0.807,1.455-1.409c0.35-0.601,0.524-1.233,0.524-1.897
					c0-0.667-0.178-1.306-0.534-1.915c-0.356-0.61-0.844-1.077-1.465-1.403C135.914,1.09,135.267,0.927,134.594,0.927z
					 M132.374,7.266V2.243h1.055c0.989,0,1.544,0.004,1.663,0.012c0.35,0.029,0.621,0.096,0.816,0.201
					c0.194,0.105,0.356,0.266,0.486,0.482c0.13,0.216,0.195,0.456,0.195,0.72c0,0.362-0.123,0.672-0.368,0.93
					c-0.245,0.257-0.59,0.417-1.033,0.479c0.158,0.058,0.279,0.12,0.365,0.188c0.085,0.068,0.202,0.197,0.352,0.386
					c0.038,0.05,0.166,0.254,0.384,0.612l0.614,1.013h-1.305l-0.435-0.816c-0.294-0.548-0.537-0.893-0.729-1.035
					c-0.192-0.142-0.435-0.213-0.729-0.213h-0.275v2.064H132.374z M133.429,4.411h0.429c0.61,0,0.988-0.023,1.135-0.068
					c0.147-0.045,0.263-0.124,0.349-0.238c0.085-0.113,0.128-0.242,0.128-0.386c0-0.14-0.042-0.265-0.125-0.374
					c-0.083-0.109-0.201-0.187-0.355-0.235c-0.153-0.047-0.531-0.071-1.132-0.071h-0.429V4.411z"/>
			</g>
			<g>
				<g>
					<g>
						<path class="st0" d="M39.721,23.157l2.815-0.706c0.169,1.129,0.513,1.929,1.031,2.401c0.518,0.472,1.217,0.649,2.097,0.533
							c0.932-0.123,1.634-0.456,2.107-0.999c0.472-0.543,0.709-1.137,0.709-1.78c0-0.413-0.099-0.751-0.298-1.015
							c-0.199-0.264-0.546-0.47-1.041-0.619c-0.339-0.098-1.111-0.25-2.317-0.456c-1.551-0.264-2.639-0.695-3.265-1.296
							c-0.88-0.844-1.32-1.958-1.32-3.34c0-0.889,0.207-1.748,0.621-2.578c0.414-0.829,1.01-1.498,1.789-2.006
							c0.779-0.508,1.719-0.834,2.821-0.98c1.799-0.238,3.153,0.064,4.062,0.905c0.909,0.841,1.387,2.06,1.432,3.658l-2.894,0.538
							c-0.124-0.881-0.39-1.492-0.797-1.83c-0.408-0.34-1.019-0.456-1.833-0.348c-0.841,0.112-1.499,0.409-1.975,0.893
							c-0.306,0.311-0.459,0.692-0.459,1.145c0,0.413,0.143,0.748,0.43,1.003c0.365,0.325,1.251,0.597,2.659,0.816
							c1.408,0.219,2.449,0.5,3.123,0.843c0.675,0.344,1.203,0.866,1.584,1.566c0.381,0.7,0.572,1.602,0.572,2.706
							c0,1.001-0.228,1.969-0.685,2.902c-0.456,0.934-1.101,1.669-1.935,2.203c-0.835,0.535-1.874,0.885-3.119,1.05
							c-1.812,0.24-3.203-0.087-4.174-0.979C40.49,26.496,39.91,25.085,39.721,23.157z"/>
					</g>
					<g>
						<path class="st0" d="M54.641,26.867L51.219,9.855l2.962-0.391l2.16,11.711l2.62-12.343l3.441-0.455l2.512,11.867l2.2-12.49
							l2.913-0.385l-3.48,17.925l-3.07,0.406L60.624,13.02l-2.845,13.433L54.641,26.867z"/>
					</g>
					<g>
						<path class="st0" d="M82.122,23.235l-3.148,0.416l-1.251-3.802l-5.729,0.757l-1.183,4.123l-3.07,0.406l5.582-18.202
							l3.06-0.405L82.122,23.235z M76.794,17.029l-1.975-6.22l-1.935,6.737L76.794,17.029z"/>
					</g>
					<g>
						<path class="st0" d="M82.456,23.191V5.726l4.643-0.614c1.76-0.233,2.907-0.296,3.442-0.193
							c0.821,0.154,1.509,0.633,2.062,1.437c0.554,0.804,0.831,1.902,0.831,3.291c0,1.072-0.16,1.995-0.479,2.768
							c-0.32,0.773-0.725,1.401-1.217,1.882c-0.492,0.483-0.992,0.824-1.501,1.026c-0.691,0.258-1.691,0.474-3.001,0.647
							L85.35,16.22v6.588L82.456,23.191z M85.35,8.298v4.956l1.584-0.209c1.14-0.151,1.902-0.343,2.287-0.576
							c0.385-0.233,0.686-0.559,0.904-0.977c0.219-0.418,0.328-0.885,0.328-1.401c0-0.635-0.153-1.139-0.459-1.512
							c-0.307-0.372-0.694-0.579-1.163-0.62c-0.346-0.033-1.04,0.018-2.082,0.156L85.35,8.298z"/>
					</g>
					<g>
						<path class="st0" d="M94.022,13.037c0-1.779,0.218-3.301,0.655-4.566c0.326-0.932,0.771-1.789,1.334-2.571
							c0.564-0.781,1.181-1.387,1.853-1.817c0.892-0.579,1.922-0.945,3.089-1.099c2.112-0.279,3.801,0.296,5.069,1.725
							c1.267,1.429,1.901,3.565,1.901,6.408c0,2.82-0.63,5.108-1.887,6.867c-1.258,1.759-2.939,2.777-5.045,3.055
							c-2.131,0.282-3.826-0.287-5.084-1.705C94.651,17.915,94.022,15.817,94.022,13.037z M97.004,12.524
							c0,1.978,0.374,3.427,1.124,4.349c0.75,0.921,1.701,1.306,2.855,1.153c1.154-0.152,2.101-0.783,2.84-1.895
							c0.74-1.11,1.11-2.678,1.11-4.703c0-2.001-0.36-3.446-1.08-4.336c-0.72-0.889-1.676-1.256-2.869-1.098
							c-1.192,0.158-2.154,0.783-2.884,1.877S97.004,10.515,97.004,12.524z"/>
					</g>
					<g>
						<path class="st0" d="M40.178,43.906V31.331l3.761-0.497c1.426-0.189,2.355-0.248,2.787-0.18
							c0.665,0.101,1.222,0.437,1.671,1.01c0.448,0.573,0.673,1.359,0.673,2.36c0,0.772-0.13,1.438-0.388,1.999
							c-0.259,0.56-0.587,1.017-0.986,1.37c-0.399,0.353-0.804,0.605-1.216,0.757c-0.559,0.194-1.37,0.361-2.431,0.501l-1.528,0.202
							v4.743L40.178,43.906z M42.522,33.149v3.568l1.283-0.17c0.924-0.122,1.541-0.27,1.853-0.442
							c0.312-0.173,0.556-0.411,0.732-0.714c0.177-0.304,0.265-0.641,0.265-1.013c0-0.457-0.124-0.818-0.372-1.083
							c-0.248-0.264-0.562-0.409-0.942-0.433c-0.28-0.02-0.842,0.026-1.687,0.137L42.522,33.149z"/>
					</g>
					<g>
						<path class="st0" d="M59.286,41.38l-2.55,0.337l-1.014-2.722l-4.64,0.613l-0.958,2.983l-2.487,0.329l4.521-13.172l2.479-0.328
							L59.286,41.38z M54.97,36.976l-1.599-4.455l-1.568,4.873L54.97,36.976z"/>
					</g>
					<g>
						<path class="st0" d="M59.564,41.343V28.768l4.933-0.652c1.241-0.164,2.142-0.17,2.705-0.019
							c0.562,0.152,1.012,0.494,1.35,1.027c0.338,0.533,0.507,1.171,0.507,1.914c0,0.944-0.257,1.756-0.769,2.439
							c-0.512,0.682-1.277,1.171-2.296,1.466c0.507,0.253,0.925,0.549,1.255,0.889c0.33,0.339,0.775,0.961,1.334,1.865l1.418,2.266
							l-2.803,0.37l-1.695-2.512c-0.602-0.898-1.014-1.46-1.235-1.685c-0.222-0.225-0.456-0.368-0.705-0.43
							c-0.248-0.061-0.641-0.057-1.18,0.015l-0.475,0.062v5.249L59.564,41.343z M61.908,33.777l1.734-0.229
							c1.124-0.148,1.826-0.293,2.106-0.433c0.28-0.14,0.499-0.346,0.658-0.619c0.158-0.273,0.237-0.598,0.237-0.975
							c0-0.423-0.104-0.751-0.313-0.984c-0.209-0.233-0.503-0.358-0.883-0.376c-0.189-0.004-0.76,0.058-1.71,0.183l-1.829,0.242
							V33.777z"/>
					</g>
					<g>
						<path class="st0" d="M72.908,39.579V29.132l-3.445,0.456V27.46l9.225-1.219v2.127l-3.437,0.454V39.27L72.908,39.579z"/>
					</g>
					<g>
						<path class="st0" d="M82.277,38.341v-5.292l-4.253-6.72l2.748-0.363l2.732,4.614l2.676-5.329l2.7-0.357l-4.268,7.864v5.275
							L82.277,38.341z"/>
					</g>
					<g>
						<path class="st0" d="M92.603,36.976v-5.292l-4.252-6.72l2.748-0.363l2.732,4.614l2.676-5.329l2.7-0.357l-4.268,7.864v5.275
							L92.603,36.976z"/>
					</g>
					<g>
						<path class="st0" d="M98.923,29.931c0-1.281,0.177-2.379,0.531-3.295c0.263-0.675,0.624-1.298,1.08-1.867
							c0.457-0.569,0.957-1.013,1.501-1.33c0.723-0.427,1.557-0.703,2.502-0.828c1.71-0.226,3.079,0.168,4.106,1.181
							s1.54,2.544,1.54,4.591c0,2.03-0.509,3.685-1.528,4.967c-1.019,1.281-2.381,2.034-4.086,2.26
							c-1.726,0.228-3.099-0.161-4.118-1.167C99.433,33.436,98.923,31.932,98.923,29.931z M101.338,29.526
							c0,1.424,0.303,2.463,0.911,3.118c0.607,0.654,1.377,0.92,2.312,0.796c0.934-0.123,1.701-0.589,2.301-1.398
							c0.599-0.808,0.898-1.941,0.898-3.4c0-1.441-0.292-2.477-0.875-3.109c-0.584-0.632-1.358-0.884-2.324-0.757
							c-0.966,0.128-1.745,0.589-2.336,1.385C101.634,26.958,101.338,28.079,101.338,29.526z"/>
					</g>
					<g>
						<path class="st0" d="M111.024,21.967l2.343-0.31v6.811c0,1.081,0.029,1.777,0.087,2.09c0.1,0.502,0.339,0.883,0.717,1.145
							c0.377,0.262,0.893,0.349,1.548,0.263c0.666-0.088,1.167-0.301,1.505-0.64s0.541-0.728,0.61-1.166
							c0.069-0.438,0.103-1.155,0.103-2.15v-6.956l2.343-0.31v6.605c0,1.51-0.063,2.585-0.19,3.225s-0.36,1.197-0.701,1.671
							c-0.34,0.474-0.795,0.876-1.366,1.206c-0.57,0.33-1.314,0.556-2.233,0.677c-1.109,0.147-1.95,0.119-2.522-0.082
							c-0.573-0.202-1.026-0.502-1.358-0.901c-0.333-0.399-0.552-0.835-0.658-1.307c-0.153-0.7-0.229-1.754-0.229-3.16V21.967z"/>
					</g>
					<g>
						<path class="st0" d="M124.391,32.775V22.327l-3.445,0.455v-2.127l9.225-1.219v2.127l-3.437,0.454v10.447L124.391,32.775z"/>
					</g>
					<g>
						<path class="st0" d="M130.719,31.938V19.364l2.344-0.31v4.949l4.593-0.607v-4.949l2.344-0.31v12.575l-2.344,0.31v-5.498
							l-4.593,0.607v5.498L130.719,31.938z"/>
					</g>
					<g>
						<path class="st0" d="M40.533,65.817V48.496l2.894-0.383v14.379l7.195-0.951v2.943L40.533,65.817z"/>
					</g>
					<g>
						<path class="st0" d="M51.984,64.303V46.839l10.626-1.404v2.954l-7.733,1.022v3.872l7.195-0.951v2.943l-7.195,0.951v4.753
							l8.007-1.058v2.943L51.984,64.303z"/>
					</g>
					<g>
						<path class="st0" d="M77.561,60.923l-3.148,0.416l-1.251-3.802l-5.729,0.757l-1.183,4.123l-3.07,0.406l5.582-18.203
							l3.06-0.405L77.561,60.923z M72.233,54.718l-1.975-6.22l-1.935,6.737L72.233,54.718z"/>
					</g>
					<g>
						<path class="st0" d="M85.062,53.51v-2.943l6.237-0.824V56.7c-0.606,0.795-1.485,1.541-2.635,2.236
							c-1.151,0.696-2.315,1.122-3.495,1.278c-1.499,0.198-2.806-0.012-3.92-0.631c-1.115-0.619-1.952-1.604-2.513-2.956
							c-0.56-1.351-0.841-2.864-0.841-4.54c0-1.818,0.313-3.476,0.938-4.973c0.626-1.496,1.541-2.701,2.747-3.615
							c0.92-0.701,2.063-1.142,3.432-1.323c1.779-0.235,3.169,0.036,4.169,0.813c1,0.777,1.644,1.949,1.931,3.515l-2.874,1.035
							c-0.202-0.831-0.582-1.458-1.139-1.881c-0.557-0.423-1.253-0.579-2.087-0.468c-1.265,0.167-2.27,0.788-3.016,1.864
							c-0.746,1.076-1.119,2.575-1.119,4.496c0,2.073,0.378,3.577,1.134,4.514c0.756,0.936,1.746,1.324,2.972,1.162
							c0.606-0.08,1.214-0.305,1.823-0.676c0.609-0.371,1.132-0.791,1.569-1.262v-2.216L85.062,53.51z"/>
					</g>
					<g>
						<path class="st0" d="M93.247,41.385l2.894-0.383v9.459c0,1.501,0.036,2.469,0.108,2.904c0.123,0.699,0.418,1.233,0.885,1.605
							c0.466,0.371,1.103,0.503,1.911,0.396c0.821-0.109,1.44-0.395,1.857-0.86c0.417-0.464,0.668-0.999,0.753-1.606
							c0.085-0.607,0.127-1.602,0.127-2.984v-9.662l2.894-0.382v9.173c0,2.097-0.078,3.588-0.234,4.475
							c-0.157,0.886-0.445,1.655-0.865,2.306c-0.42,0.651-0.983,1.2-1.686,1.646c-0.704,0.447-1.623,0.745-2.757,0.895
							c-1.369,0.181-2.407,0.126-3.114-0.166c-0.707-0.292-1.266-0.718-1.676-1.279c-0.41-0.561-0.681-1.17-0.811-1.828
							c-0.189-0.976-0.284-2.44-0.284-4.394V41.385z"/>
					</g>
					<g>
						<path class="st0" d="M107.025,57.028V39.564l10.626-1.405v2.954l-7.733,1.022v3.872l7.195-0.951v2.943l-7.195,0.951v4.753
							l8.007-1.058v2.943L107.025,57.028z"/>
					</g>
				</g>
			</g>
		</g>
	</g>
	<rect class="st1" width="140" height="100"/>
</g>
</svg>