<!-- Generator: Adobe Illustrator 23.0.0, SVG Export Plug-In  -->
<svg version="1.1" xmlns="http://www.w3.org/2000/svg" xmlns:xlink="http://www.w3.org/1999/xlink" x="0px" y="0px" width="140px"
	 height="100px" viewBox="0 0 140 100" style="enable-background:new 0 0 140 100;" xml:space="preserve">
<style type="text/css">
	.st0{fill:none;}
	.st1{fill:#23347C;}
	.st2{fill:#00AD42;}
	.st3{fill:#ED1C24;}
	.st4{fill:#FFFFFF;}
</style>
<defs>
</defs>
<g>
	<rect class="st0" width="140" height="100"/>
	<g>
		<polygon class="st1" points="82.132,64.838 82.132,64.838 82.132,64.838 		"/>
		<g>
			<path class="st1" d="M76.718,68.411c-1.696,1.131-3.346,2.161-4.95,3.069c-1.603,0.911-3.157,1.701-4.674,2.367
				c-1.519,0.665-2.994,1.21-4.448,1.663l-1.087,0.324c-0.368,0.094-0.73,0.191-1.084,0.293c-0.369,0.082-0.729,0.173-1.087,0.261
				c-0.36,0.087-0.733,0.152-1.089,0.238c-1.455,0.303-2.929,0.544-4.439,0.757c-1.505,0.218-3.065,0.378-4.664,0.518
				c-0.79,0.083-1.616,0.125-2.425,0.199c-0.832,0.04-1.648,0.118-2.498,0.151c-1.481,0.093-3.009,0.151-4.552,0.219v0
				c-0.203,0.009-0.406,0.017-0.61,0.027l-2.662,0.102l-0.052,0.002v0l-0.62,0.024l-0.701,0.033c-0.585,0.02-1.17,0.048-1.753,0.078
				c-2.326,0.105-4.725,0.433-7.092,0.906c-0.593,0.118-1.19,0.281-1.78,0.424c-0.591,0.156-1.177,0.29-1.763,0.489
				c-0.585,0.187-1.167,0.377-1.743,0.574c-0.289,0.092-0.575,0.204-0.858,0.32l-0.849,0.344c-1.134,0.444-2.215,0.999-3.282,1.542
				c-0.529,0.282-1.035,0.597-1.546,0.894c-0.255,0.151-0.508,0.3-0.758,0.458c-0.25,0.156-0.486,0.327-0.728,0.49
				c-0.481,0.327-0.956,0.658-1.422,0.999c-0.451,0.353-0.9,0.699-1.336,1.063l-0.652,0.541c-0.209,0.185-0.417,0.37-0.62,0.561
				c-0.407,0.382-0.82,0.75-1.212,1.139c-0.76,0.789-1.53,1.569-2.217,2.401c-0.349,0.413-0.696,0.825-1.032,1.248
				c-0.332,0.421-0.653,0.855-0.974,1.287C2.186,96.158,1.02,97.969,0,100c0.001,0,0.001-0.001,0.002-0.001c0,0-0.001,0-0.001,0
				c0,0,0.001,0,0.001,0c0.068-0.032,0.144-0.105,0.22-0.106l0.13-0.062c0.06-0.039,0.121-0.084,0.184-0.135
				c0.001,0,0.002-0.001,0.002-0.002c0.648-0.516,1.457-1.556,2.1-2.35c0.034-0.042,0.067-0.083,0.1-0.123
				c0.018-0.021,0.035-0.043,0.053-0.064c0.049-0.059,0.096-0.116,0.142-0.171c0.011-0.013,0.022-0.026,0.032-0.038
				c0.047-0.056,0.093-0.11,0.137-0.16c0.009-0.01,0.018-0.021,0.027-0.031c0.045-0.051,0.088-0.098,0.128-0.142
				c0.006-0.006,0.011-0.011,0.017-0.017c0.042-0.045,0.083-0.087,0.121-0.123c0.879-0.836,1.785-1.605,2.711-2.321
				c0.303-0.234,0.609-0.463,0.917-0.685c0.23-0.166,0.462-0.329,0.694-0.489c0.328-0.225,0.658-0.443,0.991-0.656
				c0.557-0.355,1.121-0.693,1.691-1.015c7.926-4.47,17.087-5.803,26.386-6.889c5.658-0.66,11.366-1.23,16.879-2.36
				c0.984-0.202,1.962-0.421,2.932-0.662c0.647-0.161,1.29-0.331,1.93-0.512c1.919-0.543,3.803-1.182,5.641-1.948
				c2.469-1.027,4.758-2.355,6.907-3.882c0.391-0.278,0.777-0.562,1.159-0.852c0.764-0.58,1.51-1.185,2.24-1.808
				c1.096-0.935,2.156-1.913,3.188-2.917c0.172-0.167,0.343-0.335,0.513-0.504c1.363-1.35,2.677-2.742,3.957-4.138
				C80.172,66.066,78.43,67.288,76.718,68.411z"/>
			<path class="st2" d="M82.132,64.838c-0.002,0.017-0.015,0.089-0.036,0.201c-0.025,0.135-0.062,0.327-0.105,0.552
				c-0.051,0.262-0.111,0.567-0.174,0.874c-0.018,0.088-0.036,0.176-0.053,0.263c-0.018,0.087-0.036,0.174-0.053,0.258
				c-0.009,0.042-0.018,0.084-0.026,0.125c-0.017,0.083-0.034,0.163-0.051,0.24s-0.033,0.151-0.048,0.221
				c-0.039,0.174-0.073,0.323-0.101,0.43c-0.192,0.745-0.391,1.49-0.622,2.225c-0.077,0.245-0.157,0.489-0.242,0.732
				c-1.653,4.739-4.076,8.462-7.064,11.399c-0.801,0.787-1.644,1.515-2.522,2.194c-0.76,0.587-1.546,1.138-2.358,1.65
				c-0.717,0.452-1.455,0.873-2.209,1.27c-0.474,0.25-0.953,0.493-1.44,0.723c-0.316,0.149-0.634,0.293-0.955,0.434
				c-0.55,0.241-1.108,0.468-1.672,0.686c-0.425,0.164-0.853,0.325-1.285,0.477c-0.336,0.118-0.674,0.232-1.014,0.343
				c-0.68,0.222-1.37,0.429-2.066,0.625c-1.742,0.488-3.531,0.895-5.354,1.239c-0.365,0.069-0.73,0.135-1.098,0.199
				c-2.937,0.511-5.951,0.868-8.983,1.14c-0.981,0.088-1.964,0.166-2.947,0.238c-1.674,0.123-3.346,0.228-5.008,0.323
				c-0.377,0.022-0.753,0.043-1.129,0.064c-4.882,0.273-9.65,0.499-14.042,0.97c-0.355,0.038-0.714,0.086-1.074,0.138
				c-0.436,0.063-0.876,0.137-1.318,0.218c-0.785,0.143-1.574,0.307-2.356,0.483c-0.857,0.193-1.706,0.396-2.528,0.594
				c-0.518,0.125-1.032,0.259-1.543,0.401c-0.025,0.007-0.049,0.014-0.074,0.021c-3.553,0.993-6.989,2.344-10.569,3.21
				C0.005,99.998,0,100,0,100c2.764-0.156,5.512-0.377,8.251-0.6c7.584-0.617,14.983-0.933,22.585-0.426
				c1.845,0.123,3.702,0.223,5.56,0.303v0.012c1.006,0.044,2.012,0.073,3.017,0.095c0.102,0.002,0.205,0.009,0.307,0.011V99.39
				c11.087,0.212,22.054-1.14,30.954-8.496C78.376,84.53,83.301,74.734,82.132,64.838z"/>
			<g>
				<path class="st3" d="M82.132,64.838c-1.28,1.396-2.594,2.788-3.957,4.138c-0.17,0.169-0.342,0.337-0.513,0.504
					c-1.032,1.004-2.092,1.982-3.188,2.917c-0.73,0.623-1.477,1.228-2.24,1.808c-0.382,0.29-0.768,0.574-1.159,0.852
					c-2.15,1.527-4.439,2.854-6.907,3.882c-1.838,0.765-3.723,1.405-5.641,1.948c-0.64,0.181-1.283,0.351-1.93,0.512
					c-0.97,0.241-1.948,0.461-2.932,0.662c-4.559,0.934-9.253,1.486-13.942,2.022v-0.001c-0.981,0.112-1.961,0.225-2.94,0.339
					c-0.128,0.015-0.257,0.029-0.385,0.044v0.001c-9.166,1.078-18.183,2.436-25.998,6.843c-0.57,0.322-1.134,0.66-1.691,1.015
					c-0.333,0.212-0.663,0.431-0.991,0.656c-0.233,0.16-0.464,0.323-0.694,0.489c-0.308,0.222-0.614,0.451-0.917,0.685
					c-0.926,0.716-1.832,1.485-2.711,2.321c-0.038,0.036-0.078,0.078-0.121,0.123c-0.006,0.006-0.011,0.011-0.017,0.017
					c-0.041,0.044-0.084,0.091-0.128,0.142c-0.009,0.01-0.018,0.021-0.027,0.031c-0.044,0.051-0.09,0.104-0.137,0.16
					c-0.011,0.012-0.022,0.026-0.032,0.038c-0.046,0.055-0.093,0.112-0.142,0.171c-0.017,0.021-0.035,0.043-0.053,0.064
					c-0.033,0.041-0.066,0.082-0.1,0.123c-0.643,0.794-1.452,1.833-2.1,2.35c-0.001,0.001-0.002,0.001-0.002,0.002
					c-0.196,0.156-0.377,0.265-0.535,0.303c0,0,0.001,0,0.001,0c0.002,0,0.005-0.001,0.007-0.002
					c3.58-0.866,7.016-2.217,10.569-3.21c0.025-0.007,0.049-0.014,0.074-0.021c0.512-0.142,1.026-0.277,1.543-0.401
					c0.823-0.198,1.671-0.402,2.528-0.594c0.782-0.176,1.57-0.34,2.356-0.483c0.441-0.08,0.881-0.154,1.318-0.218
					c0.361-0.052,0.72-0.101,1.074-0.138c4.393-0.471,9.16-0.697,14.042-0.97c0.376-0.021,0.752-0.042,1.129-0.064
					c0.582-0.033,1.17-0.077,1.754-0.113v0.009c1.083-0.067,2.168-0.139,3.254-0.219c0.024-0.002,0.047-0.003,0.071-0.004v-0.001
					c0.959-0.071,1.919-0.146,2.877-0.232c3.031-0.271,6.046-0.629,8.983-1.14c0.367-0.064,0.733-0.13,1.098-0.199
					c1.823-0.344,3.613-0.752,5.354-1.239c0.697-0.195,1.386-0.403,2.066-0.625c0.34-0.111,0.678-0.225,1.014-0.343
					c0.433-0.152,0.86-0.312,1.285-0.477c0.564-0.218,1.123-0.445,1.672-0.686c0.321-0.141,0.64-0.285,0.955-0.434
					c0.488-0.23,0.966-0.473,1.44-0.723c0.754-0.397,1.492-0.818,2.209-1.27c0.813-0.512,1.598-1.063,2.358-1.65
					c0.878-0.679,1.722-1.407,2.522-2.194c2.988-2.937,5.411-6.66,7.064-11.399c0.085-0.243,0.165-0.487,0.242-0.732
					c0.23-0.735,0.43-1.48,0.622-2.225c0.028-0.107,0.062-0.255,0.101-0.43c0.016-0.07,0.032-0.144,0.048-0.221
					s0.034-0.157,0.051-0.24c0.009-0.041,0.017-0.083,0.026-0.125c0.018-0.085,0.036-0.171,0.053-0.258
					c0.018-0.087,0.036-0.175,0.053-0.263c0.062-0.307,0.123-0.612,0.174-0.874c0.044-0.224,0.08-0.417,0.105-0.552
					C82.117,64.927,82.13,64.854,82.132,64.838L82.132,64.838z"/>
				<polygon class="st3" points="0.001,99.999 0.001,99.999 0.001,99.999 				"/>
			</g>
		</g>
		<g>
			<path class="st4" d="M2.124,69.243c1.922,3.318,3.421,7.056,3.109,10.955c-0.327,4.072,1.964,3.134,5.114,2.013
				c1.706-0.607,1.078-2.049,1.26-3.373c0.247-1.794,0.992-2.926,2.727-3.729c1.428-0.661,5.655-1.707,6.476-3.097
				c0.469,0.085,0.758-0.371,1.162-0.388c0.74-0.031,1.334-0.41,1.975-0.671c0.498-0.203,0.93-0.494,1.511-0.57
				c0.428-0.055,0.914-0.374,1.178-0.716c0.243-0.315,0.488-0.716,0.452-1.202c-0.088-1.184,0.13-2.381-0.19-3.661
				c0.202,0.103,0.361,0.142,0.455,0.24c0.491,0.51,0.885,1.095,1.349,1.629c0.555,0.639,1.01,1.367,1.444,2.093
				c0.33,0.553,0.556,1.164,0.834,1.746c0.082,0.173,0.183,0.337,0.275,0.505c-0.005-1.462,0.682-2.684,1.086-4.108
				c0.284,0.28,0.545,0.45,0.68,0.687c0.578,1.019,1.16,2.019,1.545,3.151c0.39,1.149,0.564,2.318,0.679,3.477
				c0.057,0.572,0.123,1.16,0.118,1.747c0.395-0.028,0.787-0.053,1.173-0.07c0.579-0.03,1.262-0.063,1.953-0.087l0.369-0.017
				c0.023-0.16,0.052-0.322,0.115-0.479c0.137-0.343,0.082-0.795,0.295-1.063c0.249-0.313-0.092-0.758,0.333-0.966
				c0.111-1.072,0.579-2.097,0.419-3.207c-0.052-0.356-0.019-0.726-0.005-1.089c0.02-0.518-0.123-0.981-0.387-1.433
				c-0.453-0.776-1.191-1.313-1.946-1.66c-0.925-0.424-1.786-0.939-2.674-1.414c-0.479-0.257-0.929-0.566-1.368-0.837
				c0.093-0.166,0.166-0.269,0.211-0.383c0.079-0.2,0.121-0.415,0.213-0.608c0.107-0.223,0.272-0.42,0.373-0.644
				c0.088-0.195-0.05-0.492,0.227-0.597c0.344-0.131,0.008-0.374,0.15-0.579c0.552-0.796,0.626-1.791,1.082-2.637
				c0.027-0.05-0.098-0.192-0.178-0.266c-0.017-0.016-0.207,0.074-0.212,0.125c-0.077,0.793-0.685,1.316-1.043,1.965
				c-0.534,0.966-1.427,1.442-2.574,1.883c0.159-0.255,0.217-0.399,0.319-0.502c0.556-0.56,1.144-1.088,1.604-1.736
				c0.205-0.289,0.395-0.55,0.465-0.91c0.087-0.45,0.168-0.945,0.422-1.309c0.322-0.461,0.49-0.939,0.358-1.43
				c-0.079-0.294,0.417-0.508,0.051-0.738c-0.235-0.148-0.515-0.232-0.782-0.326c-0.091-0.032-0.205,0.006-0.306-0.007
				c-0.485-0.062-0.981-0.091-1.45-0.212c-0.266-0.068-0.571-0.24-0.714-0.454c-0.289-0.434-0.762-0.655-1.1-1.023
				c-0.066-0.072-0.213-0.073-0.402-0.131c0.154,0.323,0.415,0.68,0.345,0.756c-0.303,0.333-0.013,0.451,0.146,0.643
				c0.181,0.22,0.381,0.439,0.503,0.69c0.32,0.661,0.262,1.378,0.235,2.081c-0.005,0.132-0.166,0.37-0.256,0.37
				c-0.461,0.001-0.867,0.504-1.42,0.116c0.837-0.172,1.331-0.615,1.416-1.499c-0.551,0.3-1.074,0.42-1.495-0.142
				c-0.021-0.028-0.164-0.023-0.189,0.01c-0.277,0.362-0.346-0.085-0.515-0.109c-0.183-0.027-0.504,0.094-0.546,0.025
				c-0.315-0.512-0.875-0.22-1.275-0.377c-0.019-0.367-0.148-0.728,0.382-0.856c0.135-0.033,0.212-0.292,0.328-0.467
				c0.363-0.033,0.728-0.019,1.114,0.163c0.336,0.159,0.776-0.071,0.82-0.339c0.053-0.322-0.09-0.497-0.427-0.66
				c-0.294-0.142-0.561-0.144-0.852-0.175c-0.733-0.076-1.186-0.508-0.943-1.021c0.184-0.389,0.147-0.745,0.174-1.12
				c0.028-0.407,0.244-0.686,0.675-0.829c0.167-0.056,0.339-0.1,0.529-0.155c0.144,0.168,0.404,0.331,0.423,0.517
				c0.104,1.013,0.934,1.27,1.703,1.54c0.599,0.211,1.237,0.155,1.791-0.212c0.202-0.134,0.373-0.314,0.08-0.55
				c-0.058-0.047-0.052-0.169-0.075-0.256c0.562-0.332,0.954,0.173,1.475,0.255c-0.083-0.368-0.186-0.695-0.226-1.029
				c-0.069-0.567-0.19-0.697-0.802-0.915c-0.278-0.099-0.536-0.191-0.842-0.201c-0.282-0.009-0.561-0.114-0.839-0.188
				c-0.429-0.114-0.904-0.161-1.27-0.378c-0.397-0.236-0.736-0.601-1.016-0.97c-0.247-0.326-0.638-0.689-0.177-1.163
				c0.079-0.081,0.011-0.297,0.011-0.391c0.349-0.082,0.644-0.079,0.842-0.211c0.43-0.289,0.939-0.579,1.173-0.996
				c0.212-0.378,0.381-0.254,0.611-0.188c0.333,0.096,0.65,0.256,0.988,0.323c0.355,0.071,0.781-0.032,1.076,0.12
				c0.288,0.149,0.46,0.519,0.664,0.804c0.088,0.123,0.157,0.273,0.184,0.42c0.083,0.466,0.034,0.988,0.241,1.389
				c0.21,0.407,0.055,0.829,0.24,1.194c0.171,0.338,0.335,0.651,0.368,1.05c0.029,0.35,0.447,0.612,0.388,1.027
				c0.463,0.483,0.281,1.412,1.183,1.591c0.249,0.455,0.822,0.757,0.674,1.404c-0.047,0.209-0.075,0.466,0.184,0.615
				c-0.267,0.184-0.182,0.457-0.193,0.706c0.335-0.202,0.337-0.538,0.437-0.861c0.077-0.249-0.374-0.314-0.107-0.577
				c0.109-0.107,0.068-0.365,0.077-0.555c0.011-0.23,0.003-0.461,0.003-0.701c1.206-0.958,1.6-2.217,1.437-3.679
				c-0.345-0.43-0.238-0.941-0.185-1.402c0.061-0.538-0.212-0.995-0.236-1.505c-0.019-0.4,0.149-0.815-0.232-1.202
				c-0.267-0.272-0.348-0.711-0.53-1.066c-0.155-0.303-0.334-0.594-0.505-0.888c-0.208-0.358-0.207-0.875-0.776-0.961
				c-0.179-0.492-0.68-0.639-1.083-0.8c-0.477-0.19-0.858-0.517-1.341-0.701c-0.522-0.199-1.137-0.034-1.573-0.386
				c-0.345-0.28-0.71-0.221-1.046-0.153c-1.029,0.208-1.098,0.202-2.01,0.014c-0.423-0.087-0.922-0.152-1.309-0.018
				c-0.779,0.27-1.616,0.303-2.376,0.684c-0.435,0.219-0.943,0.357-1.38,0.598c-0.441,0.243-1.03,0.359-1.086,1.018
				c-0.007,0.081-0.256,0.166-0.406,0.207c-0.565,0.157-0.736,0.563-0.758,1.07c-0.008,0.185-0.001,0.371-0.001,0.522
				c-0.26,0.047-0.531,0.033-0.562,0.11c-0.195,0.486-0.455,0.942-0.662,1.42c-0.346,0.798-0.254,1.675-0.392,2.512
				c-0.096,0.583-0.058,1.195,0.151,1.806c0.177,0.517,0.105,1.113,0.144,1.692c-0.152-0.114-0.324-0.233-0.485-0.365
				c-0.621-0.509-1.468-0.707-1.981-1.37c-0.317-0.409-0.679-0.784-1.007-1.186c-0.074-0.091-0.076-0.234-0.135-0.34
				c-0.338-0.608-0.424-1.3-0.56-1.949c-0.18-0.856-0.514-1.699-0.465-2.596c0.007-0.131,0.043-0.284-0.011-0.391
				c-0.344-0.677-0.33-1.438-0.565-2.149c-0.423-1.284-0.827-2.576-1.324-3.835c-0.374-0.947-0.662-1.917-0.961-2.884
				c-0.202-0.653-0.281-1.341-0.426-2.012c-0.052-0.24-0.188-0.473-0.193-0.711c-0.023-0.957-0.071-1.921,0.008-2.872
				c0.081-0.985-0.23-1.923-0.224-2.892c0.008-1.321,0.002-2.643,0.002-3.964c0-0.727,0.183-1.515-0.05-2.163
				c-0.245-0.684,0.1-1.422-0.361-2.033c0.044-1.121-0.507-2.111-0.751-3.168c-0.056-0.243-0.019-0.551-0.161-0.723
				c-0.378-0.452-0.314-0.958-0.318-1.464c-0.006-0.694-0.007-1.388,0.003-2.081c0.002-0.152,0.014-0.339,0.103-0.45
				c0.565-0.704,1.116-1.425,1.745-2.074c0.554-0.572,0.756-1.263,0.567-1.93c-0.128-0.453-0.138-0.878-0.154-1.317
				c-0.025-0.693-0.046-1.39,0.002-2.08c0.069-0.995-0.602-1.623-1.147-2.317c-0.037-0.048-0.197-0.006-0.299,0.038
				c-0.041,0.075-0.081,0.105-0.122,0.136c-0.013-0.042-0.047-0.111-0.034-0.12c0.039-0.028,0.091-0.04,0.139-0.055
				c-0.152-0.36-0.58-0.129-0.8-0.386c-0.095-0.111-0.355,0.015-0.527,0.164c-0.096,0.082-0.327,0.019-0.498,0.019
				C10.081,0.226,9.5,0.228,8.918,0.224C8.545,0.222,8.226,0.235,7.914,0.548C7.701,0.762,7.304,0.921,6.915,0.82
				C6.56,0.728,6.213,0.896,6.012,1.08C5.628,1.43,5.068,1.633,4.899,2.193C4.873,2.28,4.747,2.385,4.654,2.399
				c-0.731,0.11-1.139,0.527-1.297,1.207C3.214,4.22,2.971,4.82,3.059,5.469c0.459,0.284,0.097,0.774,0.316,1.167
				c0.201,0.36,0.099,0.891,0.089,1.345C3.45,8.623,3.593,9.223,3.842,9.815c0.119,0.283,0.086,0.653,0.265,0.878
				c0.204,0.257,0.052,0.515,0.144,0.774c0.165,0.465,0.057,0.999-0.261,1.453c-0.14,0.199-0.271,0.435-0.303,0.667
				c-0.089,0.65-0.388,1.24-0.537,1.876c-0.185,0.787-0.353,1.586-0.469,2.375c-0.144,0.982-0.004,1.993-0.217,2.99
				c-0.115,0.539,0.019,1.123-0.032,1.68c-0.048,0.536,0.225,1.111-0.189,1.606c0.324,0.267,0.255,0.541,0.014,0.817
				c0.351,0.289,0.171,0.678,0.176,1.016c0.022,1.652-0.013,3.304,0.019,4.956c0.018,0.932,0.128,1.862,0.196,2.793
				c0.002,0.033-0.015,0.079,0.002,0.097c0.371,0.393,0.14,0.871,0.203,1.307c0.068,0.468,0.162,0.935,0.201,1.405
				c0.162,1.994-0.284,3.971-0.208,5.964c0.005,0.143-0.099,0.288-0.141,0.436c-0.025,0.086-0.071,0.225-0.031,0.26
				c0.337,0.302,0.159,0.684,0.17,1.023c0.029,0.858,0.036,1.719,0.002,2.577c-0.033,0.843,0.353,1.647,0.214,2.496
				c-0.011,0.064-0.023,0.141,0.002,0.197c0.415,0.901,0.429,1.893,0.563,2.834c0.129,0.906,0.608,1.76,0.46,2.704
				c0.421,0.736,0.111,1.533,0.205,2.297c-0.278,0.369-0.256,0.804-0.189,1.204c0.075,0.447-0.243,0.801-0.212,1.208
				c0.042,0.556-0.222,1.044-0.292,1.572c-0.019,0.139,0.039,0.349-0.037,0.408c-0.274,0.214-0.276,0.481-0.308,0.781
				c-0.048,0.463-0.108,0.942-0.275,1.374C2.58,64.87,2.34,65.953,1.84,66.952c-0.136,0.272-0.293,0.662-0.188,0.89
				C1.862,68.297,1.864,68.794,2.124,69.243z M39.144,71.423c0.097,0.001,0.193,0.071,0.362,0.144
				c-0.143,0.129-0.227,0.242-0.262,0.23c-0.097-0.035-0.186-0.114-0.247-0.197C38.982,71.581,39.092,71.423,39.144,71.423z
				 M30.672,65.859c0.023,0.044,0.053,0.086,0.064,0.133c0.004,0.016-0.041,0.043-0.064,0.065c-0.023-0.044-0.053-0.086-0.064-0.133
				C30.604,65.908,30.649,65.881,30.672,65.859z M31.545,50.724c0.023,0.328,0.041,0.575,0.064,0.905
				C31.141,51.193,31.141,51.193,31.545,50.724z M34.367,44.246c0.023,0.022,0.046,0.044,0.073,0.071
				c-0.024,0.042-0.048,0.085-0.073,0.128c-0.023-0.022-0.068-0.049-0.064-0.065C34.313,44.332,34.344,44.29,34.367,44.246z
				 M33.34,44.444c0.025,0.043,0.049,0.086,0.073,0.128c-0.027,0.026-0.05,0.049-0.073,0.071c-0.023-0.044-0.053-0.086-0.064-0.133
				C33.272,44.493,33.318,44.466,33.34,44.444z M33.135,44.047c0.023,0.022,0.046,0.044,0.073,0.071
				c-0.024,0.042-0.048,0.085-0.073,0.128c-0.023-0.022-0.068-0.049-0.064-0.065C33.082,44.134,33.112,44.091,33.135,44.047z
				 M30.465,57.206c-0.323,0.137-0.539,0.244-0.765,0.322c-0.237,0.082-0.481,0.167-0.728,0.193
				c-0.262,0.027-0.638,0.088-0.776-0.046c-0.277-0.27-0.463,0.035-0.653-0.014c-0.236-0.061-0.438-0.245-0.776-0.448
				C28.063,56.76,29.206,56.886,30.465,57.206z M26.663,56.348c0.066,0.017,0.119,0.08,0.178,0.124
				c-0.056,0.023-0.113,0.045-0.27,0.108c-0.014-0.031-0.045-0.101-0.076-0.171C26.552,56.386,26.616,56.336,26.663,56.348z
				 M26.236,68.987c-0.037,0.267-0.156,0.546-0.607,0.687c-0.481,0.15-0.926,0.512-1.446,0.664c-0.174,0.051-0.36,0.064-0.777,0.134
				c1.409-1.233,2.521-2.402,2.942-4.235C26.63,67.361,26.349,68.172,26.236,68.987z M23.164,57.062
				c0.637,0.874,1.182,1.814,1.643,2.787c0.261,0.552,0.46,1.149,0.411,1.94c-0.297-0.109-0.488-0.152-0.647-0.244
				c-0.309-0.179-0.425-0.596-0.846-0.648c-0.05-0.006-0.134-0.086-0.128-0.119c0.094-0.532-0.562-0.634-0.653-1.111
				c-0.088-0.459-0.443-0.866-0.647-1.311c-0.191-0.415-0.358-0.843-0.5-1.277c-0.092-0.282-0.12-0.584-0.187-0.931
				C22.335,56.081,22.799,56.562,23.164,57.062z M23.354,61.625c-0.027,0.026-0.05,0.049-0.073,0.071
				c-0.023-0.044-0.053-0.086-0.064-0.133c-0.004-0.016,0.041-0.043,0.064-0.065C23.306,61.54,23.33,61.583,23.354,61.625z
				 M21.846,69.47c0.434-0.34,0.819-0.673,1.137-1.122c0.46-0.652,1.002-1.249,1.506-1.872c0.221-0.273,0.409-0.575,0.659-0.819
				c0.224-0.219,0.396-0.43,0.464-0.771c0.049,0.122,0.101,0.242,0.143,0.366c0.005,0.014-0.066,0.046-0.065,0.068
				c0.011,0.249,0.075,0.504,0.033,0.743c-0.041,0.233-0.22,0.441-0.281,0.674c-0.364,1.397-1.269,2.768-2.381,3.257
				c-0.291,0.128-0.339,0.572-0.825,0.469c-0.238-0.051-0.592,0.204-0.827,0.396c-0.281,0.23-0.554,0.135-0.876,0.123
				C20.977,70.456,21.335,69.872,21.846,69.47z M15.685,51.582c0.023,0.044,0.053,0.086,0.064,0.133
				c0.004,0.016-0.041,0.043-0.064,0.065c-0.023-0.044-0.053-0.086-0.064-0.133C15.617,51.631,15.662,51.604,15.685,51.582z
				 M13.524,71.021c0.066,0.017,0.119,0.08,0.178,0.124c-0.056,0.023-0.113,0.045-0.27,0.108c-0.014-0.031-0.045-0.101-0.076-0.171
				C13.413,71.06,13.477,71.009,13.524,71.021z M16.262,72.208c0.389-0.129,0.789-0.248,1.194-0.309
				c0.177-0.027,0.379,0.103,0.63,0.18c-0.423,0.364-0.665,0.792-1.218,0.776c-0.113-0.003-0.263,0.064-0.339,0.147
				c-0.645,0.701-1.582,0.926-2.373,1.389c-0.386,0.226-0.737,0.507-1.166,0.806c-0.052-0.106-0.108-0.219-0.181-0.369
				C13.468,73.471,14.176,72.9,16.262,72.208z M5.591,16.646c-0.017,0.004-0.045-0.04-0.067-0.062
				c0.045-0.024,0.089-0.048,0.132-0.071c0.027,0.026,0.05,0.049,0.073,0.071C5.683,16.606,5.639,16.636,5.591,16.646z
				 M6.453,44.485c-0.014-0.031-0.045-0.101-0.076-0.171c0.056-0.023,0.121-0.073,0.167-0.061c0.066,0.017,0.119,0.08,0.178,0.124
				C6.666,44.399,6.61,44.422,6.453,44.485z M6.828,27.362c-0.027-0.026-0.05-0.049-0.073-0.071C6.8,27.27,6.844,27.24,6.893,27.23
				c0.017-0.004,0.045,0.04,0.067,0.062C6.915,27.316,6.871,27.339,6.828,27.362z M7.268,42.659
				c-0.023-0.044-0.053-0.086-0.064-0.133C7.2,42.51,7.245,42.483,7.268,42.461c0.025,0.043,0.049,0.086,0.073,0.128
				C7.314,42.615,7.291,42.637,7.268,42.659z M6.993,13.874c-0.021-0.774-0.272-1.602,0.513-2.288
				c0.384,0.296,0.903,0.36,1.459,0.346c0.595-0.014,0.823,0.264,0.555,0.76c-0.24,0.445,0.035,0.77,0.136,1.182
				C8.754,13.874,7.913,13.874,6.993,13.874z M10.45,13.659c-0.137,0-0.274,0-0.411,0c0-0.033,0-0.066,0-0.099
				c0.137,0,0.274,0,0.411,0C10.45,13.593,10.45,13.626,10.45,13.659z M13.615,6.777c-0.278,0.418-0.607,0.809-0.853,1.243
				c-0.243,0.428-0.497,0.823-0.934,1.094c-0.314,0.194-0.426,0.56-0.774,0.772c-0.869,0.531-1.688,0.541-2.466-0.044
				C8.21,9.558,8.498,9.139,8.258,8.798C8.094,8.564,8.852,7.17,9.17,6.932c0.192-0.144,0.46-0.193,0.692-0.289
				c0.463-0.192,0.925-0.388,1.378-0.579c-0.048-0.079-0.172-0.189-0.163-0.286c0.04-0.41-0.094-0.798-0.387-1.024
				c-0.311-0.239-0.736-0.416-1.165-0.355c-0.419,0.06-0.648-0.183-0.829-0.441c-0.117-0.166-0.088-0.427-0.12-0.621
				c0.784-0.413,1.525-0.384,2.244-0.321c0.675,0.059,1.397,0.15,1.796,0.799c0.191,0.311,0.301,0.669,0.44,1.009
				c0.22,0.538,0.443,1.076,0.642,1.621C13.73,6.537,13.677,6.685,13.615,6.777z M10.652,1.285c0.193-0.081,0.323-0.11,0.422-0.18
				C11.599,0.731,12,0.688,12.461,1.097c0.384,0.341,0.708,0.756,0.998,1.177c0.057,0.082-0.074,0.328,0.061,0.499
				c0.027,0.035-0.047,0.183-0.112,0.237c-0.112,0.092-0.253,0.15-0.408,0.237c-0.119-1.075-0.119-1.075-0.368-1.412
				c-0.043,0.031-0.121,0.061-0.123,0.093c-0.016,0.344,0.089,0.753-0.404,0.869c-0.559,0.131-1.213-0.102-1.426-0.471
				c-0.008-0.014,0.013-0.05,0.029-0.068c0.045-0.049,0.095-0.094,0.143-0.14C10.549,1.905,10.682,1.593,10.652,1.285z M9.164,0.938
				c0.8-0.159,1.275,0.081,1.286,0.857c0.002,0.132,0.005,0.264-0.001,0.396c-0.017,0.432-0.159,0.586-0.572,0.61
				c-0.345,0.02-0.705-0.059-1.021,0.148C8.703,2.647,8.55,2.346,8.397,2.043c-0.056-0.11-0.108-0.222-0.165-0.34
				C8.385,1.304,8.628,1.045,9.164,0.938z M6.722,1.736C7.262,1.577,7.39,1.562,7.789,1.88c0.28,0.223,0.094,0.499,0.267,0.696
				C8.251,2.799,8.227,2.999,8.05,3.256C7.794,3.627,8.06,3.999,8.238,4.307C8.384,4.56,8.511,4.748,8.286,4.99
				C8.033,5.262,7.709,5.42,7.334,5.367C7.197,5.348,6.98,5.177,6.978,5.072C6.966,4.535,6.634,4.143,6.364,3.736
				C6.2,3.487,6.676,3.411,6.436,3.175C6.238,2.98,6.104,2.725,5.938,2.49C6.272,2.311,6.307,1.858,6.722,1.736z M4.013,5.42
				c-0.21-0.404-0.168-0.751,0.06-1.157c0.387-0.689,0.493-0.924,0.96-1.272c0.142-0.106,0.353-0.174,0.53-0.168
				c0.083,0.003,0.177,0.215,0.232,0.346C5.986,3.62,6.136,4.088,6.353,4.526c0.15,0.302,0.076,0.547-0.056,0.831
				c-0.371,0-0.737,0-1.185,0c0-0.215,0.025-0.439-0.009-0.654C5.081,4.559,5,4.408,4.902,4.294C4.736,4.102,4.475,4.173,4.519,4.4
				C4.597,4.806,4.23,4.75,4.034,4.969c0.191,0.34,0.674,0.505,0.403,0.978c-0.144,0-0.305,0-0.531,0
				c0.038-0.073,0.088-0.13,0.098-0.193C4.022,5.643,4.059,5.508,4.013,5.42z M4.292,9.452c-0.284-0.58-0.246-1.191-0.188-1.786
				c0.046-0.482,0.65-0.874,1.207-0.895c0.373-0.014,0.747-0.003,1.112-0.003C7.165,7.283,7.429,8,7.368,8.844
				c-0.044,0.615-0.336,1.127-0.785,1.552C6.5,10.474,6.358,10.52,6.238,10.532C4.926,10.664,4.861,10.616,4.292,9.452z"/>
			<path class="st4" d="M12.503,0.424c-0.005,0.002-0.011,0.003-0.016,0.005c0.005,0.013,0.011,0.025,0.016,0.039
				C12.503,0.461,12.503,0.443,12.503,0.424z"/>
			<path class="st4" d="M29.96,73.073c0.014-0.589-0.263-1.08-0.468-1.598c-0.02-0.05-0.171-0.052-0.349-0.1
				c0.006,0.673,0.033,1.274,0.156,1.914c0.205,1.07,0.184,2.182,0.238,3.278c0.002,0.051,0.003,0.101,0.004,0.152
				c0.12-0.022,0.239-0.041,0.359-0.062c0.014-0.105,0.026-0.211,0.033-0.317C30.006,75.255,29.935,74.162,29.96,73.073z"/>
			<path class="st4" d="M32.739,72.801c-0.171,0.657-0.294,1.127-0.415,1.591c-0.835-0.148-0.655-0.867-0.845-1.485
				c-0.056,0.201-0.088,0.261-0.086,0.319c0.019,0.542-0.131,1.127,0.573,1.452c0.157,0.073,0.247,0.447,0.231,0.673
				c-0.023,0.319-0.008,0.633,0.032,0.945c0.156-0.021,0.313-0.042,0.468-0.062c0.027-0.295,0.073-0.584,0.167-0.857
				c0.214-0.621,0.118-1.209,0.154-1.809C33.03,73.374,32.88,73.171,32.739,72.801z"/>
			<path class="st4" d="M26.503,73.206c-0.567,0.315-1.175,0.144-1.764,0.187c-0.332,0.024-0.578-0.249-0.94-0.212
				c-0.54,0.055-1.093-0.021-1.635,0.024c-0.546,0.045-1.085,0.17-1.627,0.26c0.005,0.042,0.01,0.085,0.016,0.127
				c0.231,0,0.461,0,0.692,0c1.092,0,2.184-0.014,3.275,0.009c0.314,0.007,0.626,0.177,0.939,0.175
				c0.348-0.003,0.693-0.122,1.042-0.178c0.048-0.008,0.108,0.058,0.196,0.108c0,0.928,0,1.875,0,2.823
				c0.059,0.003,0.118,0.006,0.177,0.01c0-0.552-0.01-1.104,0.003-1.655c0.013-0.557,0.418-1.087,0.114-1.688
				C26.832,73.196,26.629,73.136,26.503,73.206z"/>
			<path class="st4" d="M18.038,75.626c0.036,0.46,0.151,0.985-0.025,1.373c-0.267,0.586-0.083,1.135-0.212,1.821
				c0.747-0.651,0.371-1.421,0.607-2.087c0.228-0.641,0.049-1.417,0.049-2.267C18.162,74.912,18.007,75.228,18.038,75.626z"/>
			<path class="st4" d="M37.248,55.532c0.11-0.285,0.238-0.569,0.293-0.865c0.075-0.407-0.151-0.739-0.541-0.945
				c-0.102-0.054-0.145-0.195-0.297-0.043c-0.136,0.137-0.088,0.193-0.027,0.361c0.168,0.463,0.232,0.962,0.351,1.513
				C37.123,55.544,37.238,55.557,37.248,55.532z"/>
			<path class="st4" d="M20.296,75.641c-0.432-0.353-0.896-0.705-1.152-1.307c-0.027,0.635-0.033,0.698,0.552,1.255
				c0.555,0.529,1.197,0.931,2.1,0.674C21.163,76.306,20.707,75.979,20.296,75.641z"/>
			<path class="st4" d="M23.742,76.347c-0.153-0.062-0.303-0.134-0.462-0.172c-0.238-0.057-0.435,0.237-0.747,0.024
				c-0.148-0.101-0.521,0.103-0.791,0.17c0,0.033-0.007,0.092,0.001,0.095c0.683,0.17,1.368,0.17,2.051,0
				c0.008-0.002,0.002-0.057,0.001-0.091c-0.025,0.001-0.049,0.001-0.074,0.002C23.727,76.365,23.735,76.357,23.742,76.347z"/>
			<path class="st4" d="M23.742,76.347c-0.007,0.01-0.015,0.017-0.022,0.028c0.025-0.001,0.049-0.002,0.074-0.002
				c0.534-0.014,1.035,0.073,1.517-0.487C24.725,76.086,24.187,75.749,23.742,76.347z"/>
			<path class="st4" d="M26.463,76.971c0,0.144,0,0.282,0,0.417c0.111-0.027,0.221-0.055,0.332-0.083
				c-0.003-0.057-0.007-0.115,0.003-0.167C26.854,76.824,26.641,77.006,26.463,76.971z"/>
			<path class="st4" d="M36.676,55.075c-0.478,0.621-0.468,0.746,0.061,0.855C36.718,55.663,36.701,55.418,36.676,55.075z"/>
			<path class="st4" d="M36.779,57.38c-0.327,0-0.597,0-0.924,0C36.317,57.767,36.317,57.767,36.779,57.38z"/>
			<path class="st4" d="M23.582,75.408c-0.277,0-0.524,0-0.904,0C23.187,75.817,23.187,75.817,23.582,75.408z"/>
			<path class="st4" d="M37.718,55.74c0.089-0.049,0.162-0.126,0.241-0.192c-0.134,0.019-0.268,0.037-0.486,0.067
				C37.618,55.692,37.691,55.755,37.718,55.74z"/>
			<path class="st4" d="M31.557,72.734c-0.011-0.047-0.041-0.089-0.064-0.133c-0.023,0.022-0.068,0.049-0.064,0.065
				c0.011,0.047,0.041,0.089,0.064,0.133C31.516,72.777,31.561,72.75,31.557,72.734z"/>
		</g>
	</g>
</g>
</svg>